<svg xmlns="http://www.w3.org/2000/svg" viewBox="0 0 1220 772" width="1220" height="772" font-family="Segoe UI, Helvetica, Arial, sans-serif">
<rect x="0" y="0" width="1220" height="772" fill="#ffffff"/>
<defs>
    <marker id="arrow" viewBox="0 0 10 10" refX="9" refY="5" markerWidth="8" markerHeight="8" orient="auto-start-reverse">
      <path d="M0,0 L10,5 L0,10 z" fill="#333333"/>
    </marker>
  </defs>
<line x1="100" y1="66" x2="100" y2="710" stroke="#a9a9a9" stroke-width="1.4" stroke-dasharray="4,3"/>
<line x1="270" y1="66" x2="270" y2="710" stroke="#a9a9a9" stroke-width="1.4" stroke-dasharray="4,3"/>
<line x1="440" y1="66" x2="440" y2="710" stroke="#a9a9a9" stroke-width="1.4" stroke-dasharray="4,3"/>
<line x1="610" y1="66" x2="610" y2="710" stroke="#a9a9a9" stroke-width="1.4" stroke-dasharray="4,3"/>
<line x1="780" y1="66" x2="780" y2="710" stroke="#a9a9a9" stroke-width="1.4" stroke-dasharray="4,3"/>
<line x1="950" y1="66" x2="950" y2="710" stroke="#a9a9a9" stroke-width="1.4" stroke-dasharray="4,3"/>
<line x1="1120" y1="66" x2="1120" y2="710" stroke="#a9a9a9" stroke-width="1.4" stroke-dasharray="4,3"/>
<rect x="30" y="24" width="140" height="42" rx="6" fill="#2f5fa8" stroke="#1c3f78" stroke-width="1"/>
      <text x="100" y="50" text-anchor="middle" fill="#ffffff" font-size="12.5" font-weight="600">Admin Maker</text>
<rect x="30" y="710" width="140" height="42" rx="6" fill="#2f5fa8" stroke="#1c3f78" stroke-width="1"/>
      <text x="100" y="736" text-anchor="middle" fill="#ffffff" font-size="12.5" font-weight="600">Admin Maker</text>
<rect x="200" y="24" width="140" height="42" rx="6" fill="#2f5fa8" stroke="#1c3f78" stroke-width="1"/>
      <text x="270" y="50" text-anchor="middle" fill="#ffffff" font-size="12.5" font-weight="600">MMP Portal</text>
<rect x="200" y="710" width="140" height="42" rx="6" fill="#2f5fa8" stroke="#1c3f78" stroke-width="1"/>
      <text x="270" y="736" text-anchor="middle" fill="#ffffff" font-size="12.5" font-weight="600">MMP Portal</text>
<rect x="370" y="24" width="140" height="42" rx="6" fill="#2f5fa8" stroke="#1c3f78" stroke-width="1"/>
      <text x="440" y="50" text-anchor="middle" fill="#ffffff" font-size="12.5" font-weight="600">MMP Backend</text>
<rect x="370" y="710" width="140" height="42" rx="6" fill="#2f5fa8" stroke="#1c3f78" stroke-width="1"/>
      <text x="440" y="736" text-anchor="middle" fill="#ffffff" font-size="12.5" font-weight="600">MMP Backend</text>
<rect x="540" y="24" width="140" height="42" rx="6" fill="#2f5fa8" stroke="#1c3f78" stroke-width="1"/>
      <text x="610" y="50" text-anchor="middle" fill="#ffffff" font-size="12.5" font-weight="600">MMP DB</text>
<rect x="540" y="710" width="140" height="42" rx="6" fill="#2f5fa8" stroke="#1c3f78" stroke-width="1"/>
      <text x="610" y="736" text-anchor="middle" fill="#ffffff" font-size="12.5" font-weight="600">MMP DB</text>
<rect x="710" y="24" width="140" height="42" rx="6" fill="#2f5fa8" stroke="#1c3f78" stroke-width="1"/>
      <text x="780" y="50" text-anchor="middle" fill="#ffffff" font-size="12.5" font-weight="600">Checker Inbox</text>
<rect x="710" y="710" width="140" height="42" rx="6" fill="#2f5fa8" stroke="#1c3f78" stroke-width="1"/>
      <text x="780" y="736" text-anchor="middle" fill="#ffffff" font-size="12.5" font-weight="600">Checker Inbox</text>
<rect x="880" y="24" width="140" height="42" rx="6" fill="#2f5fa8" stroke="#1c3f78" stroke-width="1"/>
      <text x="950" y="50" text-anchor="middle" fill="#ffffff" font-size="12.5" font-weight="600">Admin Checker</text>
<rect x="880" y="710" width="140" height="42" rx="6" fill="#2f5fa8" stroke="#1c3f78" stroke-width="1"/>
      <text x="950" y="736" text-anchor="middle" fill="#ffffff" font-size="12.5" font-weight="600">Admin Checker</text>
<rect x="1050" y="24" width="140" height="42" rx="6" fill="#2f5fa8" stroke="#1c3f78" stroke-width="1"/>
      <text x="1120" y="50" text-anchor="middle" fill="#ffffff" font-size="12.5" font-weight="600">NotifySvc</text>
<rect x="1050" y="710" width="140" height="42" rx="6" fill="#2f5fa8" stroke="#1c3f78" stroke-width="1"/>
      <text x="1120" y="736" text-anchor="middle" fill="#ffffff" font-size="12.5" font-weight="600">NotifySvc</text>
<line x1="100" y1="100" x2="270" y2="100" stroke="#333333" stroke-width="1.4"  marker-end="url(#arrow)"/>
<text x="185" y="77" text-anchor="middle" font-size="12" fill="#222222">Navigate to Handler Management;</text>
<text x="185" y="92" text-anchor="middle" font-size="12" fill="#222222">click Add Handler</text>
<line x1="100" y1="158" x2="270" y2="158" stroke="#333333" stroke-width="1.4"  marker-end="url(#arrow)"/>
<text x="185" y="135" text-anchor="middle" font-size="12" fill="#222222">Enter MSISDN (8-digit), name,</text>
<text x="185" y="150" text-anchor="middle" font-size="12" fill="#222222">email, merchant, permissions</text>
<line x1="270" y1="216" x2="440" y2="216" stroke="#333333" stroke-width="1.4"  marker-end="url(#arrow)"/>
<text x="355" y="208" text-anchor="middle" font-size="12" fill="#222222">POST /merchants/{id}/handlers</text>
<line x1="440" y1="260" x2="610" y2="260" stroke="#333333" stroke-width="1.4"  marker-end="url(#arrow)"/>
<text x="525" y="237" text-anchor="middle" font-size="12" fill="#222222">Validate MSISDN format</text>
<text x="525" y="252" text-anchor="middle" font-size="12" fill="#222222">(8-digit); check merchant ACTIVE</text>
<line x1="440" y1="318" x2="610" y2="318" stroke="#333333" stroke-width="1.4"  marker-end="url(#arrow)"/>
<text x="525" y="295" text-anchor="middle" font-size="12" fill="#222222">Store handler PENDING_APPROVAL;</text>
<text x="525" y="310" text-anchor="middle" font-size="12" fill="#222222">merchant-handler mapping</text>
<line x1="440" y1="376" x2="780" y2="376" stroke="#333333" stroke-width="1.4"  marker-end="url(#arrow)"/>
<text x="610" y="353" text-anchor="middle" font-size="12" fill="#222222">Route to Checker Inbox; notify</text>
<text x="610" y="368" text-anchor="middle" font-size="12" fill="#222222">Checker</text>
<line x1="950" y1="434" x2="780" y2="434" stroke="#333333" stroke-width="1.4"  marker-end="url(#arrow)"/>
<text x="865" y="426" text-anchor="middle" font-size="12" fill="#222222">Review pending handler request</text>
<line x1="950" y1="478" x2="440" y2="478" stroke="#333333" stroke-width="1.4"  marker-end="url(#arrow)"/>
<text x="695" y="455" text-anchor="middle" font-size="12" fill="#222222">POST</text>
<text x="695" y="470" text-anchor="middle" font-size="12" fill="#222222">/merchants/{id}/handlers/{hId}/approve</text>
<line x1="440" y1="536" x2="610" y2="536" stroke="#333333" stroke-width="1.4"  marker-end="url(#arrow)"/>
<text x="525" y="513" text-anchor="middle" font-size="12" fill="#222222">Set status ACTIVE; generate temp</text>
<text x="525" y="528" text-anchor="middle" font-size="12" fill="#222222">password</text>
<line x1="440" y1="594" x2="1120" y2="594" stroke="#333333" stroke-width="1.4"  marker-end="url(#arrow)"/>
<text x="780" y="571" text-anchor="middle" font-size="12" fill="#222222">Dispatch credentials to handler</text>
<text x="780" y="586" text-anchor="middle" font-size="12" fill="#222222">email/mobile</text>
<line x1="440" y1="652" x2="100" y2="652" stroke="#333333" stroke-width="1.4" stroke-dasharray="5,3" marker-end="url(#arrow)"/>
<text x="270" y="644" text-anchor="middle" font-size="12" fill="#222222">Success: Handler created</text>
</svg>